<?xml version="1.0" encoding="UTF-8"?>
<svg width="16px" height="16px" viewBox="0 0 16 16" version="1.1" xmlns="http://www.w3.org/2000/svg" xmlns:xlink="http://www.w3.org/1999/xlink">
    <!-- Generator: Sketch 49.3 (51167) - http://www.bohemiancoding.com/sketch -->
    <title>icons / seasons</title>
    <desc>Created with Sketch.</desc>
    <defs></defs>
    <g id="icons-/-seasons" stroke="none" stroke-width="1" fill="none" fill-rule="evenodd">
        <g id="Group" fill="#FFFFFF" fill-rule="nonzero">
            <g id="Combined-Shape">
                <path d="M13,1.99174661 L14.9975267,1.99174661 C15.5511774,1.99174661 16,2.43955956 16,2.99377441 L16,14.9979722 C16,15.5513769 15.5514869,16 14.9975267,16 L1.00247329,16 C0.448822583,16 0,15.5521871 0,14.9979722 L0,2.99377441 C0,2.44036974 0.448513113,1.99174661 1.0024733,1.99174661 L3,1.99174661 L3,0.73828125 C3,0.462192036 3.22193241,0.238377505 3.5,0.238377505 C3.77614238,0.238377505 4,0.460235828 4,0.73828125 L4,1.99174661 L12,1.99174661 L12,0.73828125 C12,0.462192036 12.2219324,0.238377505 12.5,0.238377505 C12.7761424,0.238377505 13,0.460235828 13,0.73828125 L13,1.99174661 Z M1,5 L14.9997461,5 C14.9999146,3.81290323 15,3.00270373 15,3.00270373 C15,3.00080293 1.00158827,3 1.00158827,3 C1.00098114,3 1.00045095,3.81142987 1,5 Z M15,6 L1,6 L1,14.9991936 C8.93571337,14.9997421 14.9926428,15 14.9926428,15 C14.9956058,15 14.9980649,11.0558874 15,6 Z"></path>
            </g>
        </g>
    </g>
</svg>