<svg xmlns="http://www.w3.org/2000/svg" width="119" height="55">
  <g fill="none" fill-rule="evenodd">
    <path fill="#9F9F9F" d="M0 38h119v17H0z"/>
    <path fill="#FFF" d="M9.071 44.807l.208.82.793-.196V49h.988v-4.583h-.682l-1.307.39zm6.981 1.911c0 1.326-.812 2.36-2.028 2.36-1.215 0-2.015-1.02-2.015-2.347 0-1.325.813-2.359 2.028-2.359 1.216 0 2.015 1.02 2.015 2.346zm-1.027.013c0-.831-.396-1.456-1-1.456-.605 0-.989.605-.989 1.444 0 .838.397 1.456 1.001 1.456.605 0 .988-.611.988-1.444zm5.772-.013c0 1.326-.812 2.36-2.028 2.36-1.215 0-2.015-1.02-2.015-2.347 0-1.325.813-2.359 2.028-2.359 1.216 0 2.015 1.02 2.015 2.346zm-1.027.013c0-.831-.396-1.456-1-1.456-.605 0-.989.605-.989 1.444 0 .838.397 1.456 1.001 1.456.605 0 .988-.611.988-1.444zm1.58-.598l.084.41c.774-.013 1.203-.358 1.203-1.215v-.878h-1.053v1.04h.403c.032.37-.189.598-.637.643zm4.654 1.807v-.012c0-.637-.566-.871-1.053-1.034-.377-.13-.709-.221-.709-.416v-.013c0-.137.124-.24.364-.24.254 0 .598.123.943.325l.377-.683a2.411 2.411 0 0 0-1.3-.403c-.702 0-1.274.397-1.274 1.105v.013c0 .676.552.904 1.04 1.047.383.117.721.188.721.403v.013c0 .155-.13.26-.416.26-.325 0-.721-.144-1.098-.416l-.423.65a2.44 2.44 0 0 0 1.495.526c.754 0 1.333-.351 1.333-1.124zm7.397-1.215c0 1.294-1.02 2.353-2.425 2.353-1.404 0-2.411-1.047-2.411-2.34v-.013c0-1.294 1.02-2.353 2.424-2.353s2.412 1.047 2.412 2.34v.013zm-1.047.013v-.013c0-.78-.572-1.43-1.378-1.43-.806 0-1.365.637-1.365 1.417v.013c0 .78.572 1.43 1.378 1.43.806 0 1.365-.637 1.365-1.417zm5.402-1.378v-.91H34.29V49h1.001v-1.761h2.171v-.91h-2.17v-.969h2.463zm6.747 2.906l-.637-.644c-.358.325-.676.533-1.196.533-.78 0-1.32-.65-1.32-1.43v-.013c0-.78.553-1.417 1.32-1.417.455 0 .812.195 1.163.514l.637-.735c-.422-.416-.936-.702-1.794-.702-1.397 0-2.372 1.06-2.372 2.353v.013c0 1.306.994 2.34 2.333 2.34.878 0 1.398-.312 1.866-.813zm4.693-1.248V44.45h-1.001v2.606c0 .722-.37 1.093-.982 1.093-.61 0-.981-.384-.981-1.125V44.45H45.23v2.6c0 1.339.747 2.022 1.97 2.022 1.221 0 1.995-.677 1.995-2.055zm4.31.636v-.013c0-.792-.52-1.124-1.444-1.364-.786-.202-.981-.3-.981-.599v-.012c0-.221.201-.397.585-.397.383 0 .78.169 1.183.449l.52-.755a2.634 2.634 0 0 0-1.69-.578c-.93 0-1.593.546-1.593 1.372v.013c0 .903.592 1.156 1.508 1.39.76.196.917.326.917.579v.013c0 .267-.247.429-.657.429-.52 0-.949-.214-1.358-.552l-.592.708a2.895 2.895 0 0 0 1.93.728c.982 0 1.671-.507 1.671-1.41zm4.315-2.281v-.923h-3.77v.923h1.385V49h1v-3.627h1.385zm5.402 1.352c0 1.294-1.02 2.353-2.425 2.353-1.404 0-2.411-1.047-2.411-2.34v-.013c0-1.294 1.02-2.353 2.424-2.353s2.412 1.047 2.412 2.34v.013zm-1.047.013v-.013c0-.78-.572-1.43-1.378-1.43-.806 0-1.365.637-1.365 1.417v.013c0 .78.572 1.43 1.378 1.43.806 0 1.365-.637 1.365-1.417zM68.663 49v-4.55h-1.079l-1.196 1.924-1.196-1.924h-1.079V49h.982v-2.951l1.267 1.924h.026l1.28-1.944V49h.995zm4.557 0v-.89h-2.47v-.956h2.145v-.89H70.75v-.924h2.437v-.89h-3.432V49h3.465zm4.823 0h-1.17l-.975-1.456h-.787V49h-1v-4.55h2.08c1.072 0 1.715.566 1.715 1.502v.013c0 .734-.396 1.195-.975 1.41L78.043 49zm-1.15-2.983v-.014c0-.428-.3-.65-.787-.65h-.995v1.307h1.014c.488 0 .767-.26.767-.643zm7.8 2.983h-1.17l-.976-1.456h-.786V49H80.76v-4.55h2.08c1.072 0 1.716.566 1.716 1.502v.013c0 .734-.397 1.195-.975 1.41L84.692 49zm-1.151-2.983v-.014c0-.428-.3-.65-.787-.65h-.994v1.307h1.014c.487 0 .767-.26.767-.643zM88.924 49v-.89h-2.47v-.956h2.145v-.89h-2.145v-.924h2.437v-.89H85.46V49h3.465zm5.063-4.55h-1.079l-1.19 3.204-1.189-3.204h-1.105l1.84 4.582h.884l1.84-4.582zM95.736 49v-4.55h-1.001V49h1zm4.602 0v-.89h-2.47v-.956h2.145v-.89h-2.145v-.924h2.437v-.89h-3.432V49h3.465zm7.442-4.55h-1.046l-.943 3.081-1.02-3.094h-.858l-1.02 3.094-.943-3.081h-1.073l1.554 4.582h.87l1.028-2.976 1.027 2.977h.87l1.554-4.583zm4.03 3.204v-.013c0-.792-.52-1.124-1.443-1.364-.786-.202-.981-.3-.981-.599v-.012c0-.221.201-.397.585-.397.383 0 .78.169 1.183.449l.52-.755a2.634 2.634 0 0 0-1.69-.578c-.93 0-1.593.546-1.593 1.372v.013c0 .903.592 1.156 1.508 1.39.76.196.917.326.917.579v.013c0 .267-.247.429-.657.429-.52 0-.949-.214-1.358-.552l-.592.708a2.895 2.895 0 0 0 1.93.728c.982 0 1.671-.507 1.671-1.41z"/>
    <path fill="#FFB900" d="M20.937 27.096L15.414 30l1.055-6.151L12 19.493l6.176-.897L20.937 13l2.762 5.596 6.176.897-4.469 4.356L26.461 30zm19 0L34.414 30l1.055-6.151L31 19.493l6.176-.897L39.937 13l2.762 5.596 6.176.897-4.469 4.356L45.461 30zm19 0L53.414 30l1.055-6.151L50 19.493l6.176-.897L58.937 13l2.762 5.596 6.176.897-4.469 4.356L64.461 30zm19 0L72.414 30l1.055-6.151L69 19.493l6.176-.897L77.937 13l2.762 5.596 6.176.897-4.469 4.356L83.461 30zm19 0L91.414 30l1.055-6.151L88 19.493l6.176-.897L96.937 13l2.762 5.596 6.176.897-4.469 4.356L102.461 30z"/>
    <path fill="#9F9F9F" d="M32.368.659l-.778 2.5h.84l.505-2.5h-.567zm1.683 0h.567l-.418 2.5h-.839l.69-2.5zM40.498 7l-.097-.275a330.839 330.839 0 0 1-.444-1.265l-.096-.275h-2.523L36.701 7h-.83L38.207.659h.782L41.328 7h-.83zm-1.934-5.317l-.1.285-.25.708-.294.844c-.098.28-.18.517-.248.707l-.101.286h2.057l-.993-2.83h-.07zm7.563.312h.053L47.639 7h.747L50.113.659h-.826l-1.261 5.154h-.053L46.553.66h-.8l-1.419 5.154h-.053L43.021.66h-.827L43.921 7h.747l.106-.363c.07-.241.16-.552.272-.931.111-.38.229-.782.352-1.209a286.528 286.528 0 0 1 .624-2.14l.105-.362zm9.286 4.293h-3.138v-2.18h2.975v-.703h-2.975V1.371h3.138V.659h-3.929V7h3.929v-.712zm1.296-.945c.041.548.276.986.706 1.314.429.328.979.492 1.65.492.726 0 1.303-.172 1.729-.516.426-.344.64-.808.64-1.39 0-.467-.143-.837-.43-1.113-.285-.275-.756-.495-1.412-.659l-.664-.176c-.436-.11-.749-.244-.938-.4a.748.748 0 0 1-.283-.606.92.92 0 0 1 .384-.773c.257-.194.596-.29 1.018-.29.395 0 .72.091.973.274.253.183.408.437.464.763h.795A1.684 1.684 0 0 0 60.673 1c-.413-.327-.926-.49-1.538-.49-.67 0-1.212.167-1.624.5a1.6 1.6 0 0 0-.617 1.306c0 .452.13.813.39 1.084.262.27.68.48 1.253.626l.813.21c.437.11.758.253.963.432a.855.855 0 0 1 .307.672c0 .313-.14.573-.42.78-.28.206-.633.31-1.06.31-.452 0-.824-.098-1.117-.295a1.122 1.122 0 0 1-.514-.79h-.8zM65.582.51c.902 0 1.611.3 2.127.897.515.597.773 1.405.773 2.421 0 1.014-.257 1.82-.771 2.422-.514.6-1.224.9-2.13.9-.907 0-1.62-.3-2.137-.9-.517-.601-.776-1.408-.776-2.422 0-1.02.262-1.827.785-2.423.523-.597 1.232-.895 2.129-.895zm0 .73c-.645 0-1.156.233-1.534.698-.378.466-.567 1.096-.567 1.89 0 .785.186 1.414.556 1.885.37.472.886.708 1.545.708.65 0 1.16-.236 1.531-.708.37-.471.556-1.1.556-1.885 0-.794-.186-1.424-.558-1.89-.372-.465-.882-.698-1.53-.698zM76.269 7V.659h-.918L73.18 5.906h-.07L70.939.659h-.919V7h.739V2.157h.052l2 4.8h.668l2-4.8h.052V7h.738zm5.713-.712h-3.138v-2.18h2.976v-.703h-2.976V1.371h3.138V.659h-3.929V7h3.93v-.712zm2.842-3.129l.69-2.5h-.84l-.417 2.5h.567zm1.683 0l.778-2.5h-.84l-.505 2.5h.567z"/>
  </g>
</svg>
