<?xml version="1.0" encoding="UTF-8"?>
<svg width="16px" height="16px" viewBox="0 0 16 16" version="1.1" xmlns="http://www.w3.org/2000/svg" xmlns:xlink="http://www.w3.org/1999/xlink">
    <!-- Generator: Sketch 43.2 (39069) - http://www.bohemiancoding.com/sketch -->
    <title>Facebook</title>
    <desc>Created with Sketch.</desc>
    <defs></defs>
    <g id="Page-1" stroke="none" stroke-width="1" fill="none" fill-rule="evenodd">
        <g id="main" transform="translate(-791.000000, -62.000000)" fill="#000000">
            <g id="header" transform="translate(70.000000, 49.000000)">
                <g id="social" transform="translate(721.000000, 13.000000)">
                    <path d="M16,15.1169949 C16,15.6046961 15.6046961,16.0004358 15.1169949,16.0004358 L11.0397429,16.0004358 L11.0397429,9.8041459 L13.1195554,9.8041459 L13.4311787,7.38961074 L11.0397429,7.38961074 L11.0397429,5.8476206 C11.0397429,5.14853859 11.234126,4.6721691 12.2365504,4.6721691 L13.5152951,4.67173327 L13.5152951,2.51172673 C13.2938901,2.48252567 12.5350985,2.41671434 11.6520934,2.41671434 C9.80850426,2.41671434 8.54632127,3.54204462 8.54632127,5.60878211 L8.54632127,7.38961074 L6.46127864,7.38961074 L6.46127864,9.8041459 L8.54632127,9.8041459 L8.54632127,16.0004358 L0.883005094,16.0004358 C0.39530386,16.0004358 0,15.6046961 0,15.1169949 L0,0.883440931 C0,0.39530386 0.39530386,0 0.883005094,0 L15.1169949,0 C15.6046961,0 16,0.39530386 16,0.883440931 L16,15.1169949" id="Facebook"></path>
                </g>
            </g>
        </g>
    </g>
</svg>