<?xml version="1.0" encoding="UTF-8"?>
<svg width="16px" height="16px" viewBox="0 0 16 16" version="1.1" xmlns="http://www.w3.org/2000/svg" xmlns:xlink="http://www.w3.org/1999/xlink">
    <!-- Generator: Sketch 43.2 (39069) - http://www.bohemiancoding.com/sketch -->
    <title>Instagram</title>
    <desc>Created with Sketch.</desc>
    <defs></defs>
    <g id="Page-1" stroke="none" stroke-width="1" fill="none" fill-rule="evenodd">
        <g id="main" transform="translate(-851.000000, -62.000000)" fill="#000000">
            <g id="header" transform="translate(70.000000, 49.000000)">
                <g id="social" transform="translate(721.000000, 13.000000)">
                    <path d="M74.0981371,0 L61.9018629,0 C60.8514306,0 60,0.849248561 60,1.89749884 L60,14.1025012 C60,15.150315 60.8514306,16 61.9018629,16 L74.0981371,16 C75.1485694,16 76,15.150315 76,14.1025012 L76,1.89749884 C76,0.849248561 75.1485694,0 74.0981371,0 L74.0981371,0 Z M71.5002046,2.49974088 C71.5002046,2.22393148 71.7240815,2.00005455 71.9998909,2.00005455 L73.4998227,2.00005455 C73.7760685,2.00005455 73.9999454,2.22393148 73.9999454,2.49974088 L73.9999454,4.0001091 C73.9999454,4.2759185 73.7760685,4.49979543 73.4998227,4.49979543 L71.9998909,4.49979543 C71.7240815,4.49979543 71.5002046,4.2759185 71.5002046,4.0001091 L71.5002046,2.49974088 L71.5002046,2.49974088 Z M68.0185473,4.94885852 C69.7179172,4.94885852 71.095655,6.32354145 71.095655,8.01854731 C71.095655,9.71398958 69.7179172,11.0882361 68.0185473,11.0882361 C66.3196138,11.0882361 64.941876,9.71398958 64.941876,8.01854731 C64.941876,6.32354145 66.3196138,4.94885852 68.0185473,4.94885852 L68.0185473,4.94885852 Z M74.5000682,13.9999454 C74.5000682,14.2757548 74.2761913,14.5000682 73.9999454,14.5000682 L62.0000546,14.5000682 C61.7238087,14.5000682 61.4999318,14.2757548 61.4999318,13.9999454 L61.4999318,6.49984998 L63.4999864,6.49984998 C63.2394512,6.87472384 63.1512969,7.5742847 63.1512969,8.01854731 C63.1512969,10.695906 65.335079,12.8744511 68.0185473,12.8744511 C70.7024521,12.8744511 72.8862341,10.695906 72.8862341,8.01854731 C72.8862341,7.5742847 72.822955,6.88563402 72.5000136,6.49984998 L74.5000682,6.49984998 L74.5000682,13.9999454 L74.5000682,13.9999454 Z" id="Instagram"></path>
                </g>
            </g>
        </g>
    </g>
</svg>