<?xml version="1.0" encoding="UTF-8"?>
<svg width="33px" height="32px" viewBox="0 0 33 32" version="1.1" xmlns="http://www.w3.org/2000/svg" xmlns:xlink="http://www.w3.org/1999/xlink">
    <!-- Generator: Sketch 43.2 (39069) - http://www.bohemiancoding.com/sketch -->
    <title>icon_whistle</title>
    <desc>Created with Sketch.</desc>
    <defs></defs>
    <g id="Page-1" stroke="none" stroke-width="1" fill="none" fill-rule="evenodd">
        <g id="league" transform="translate(-390.000000, -401.000000)">
            <g transform="translate(120.000000, 180.000000)" id="Group">
                <g transform="translate(71.000000, 219.000000)">
                    <g id="icon_whistle" transform="translate(199.000000, 2.000000)">
                        <path d="M8.972,21.035 C8.974,19.935 9.872,19.037 10.972,19.035 C12.073,19.037 12.97,19.935 12.972,21.035 C12.97,22.135 12.073,23.033 10.972,23.035 C9.872,23.033 8.974,22.135 8.972,21.035 L8.972,21.035 Z M14.972,21.035 C14.971,18.827 13.181,17.037 10.972,17.035 C8.764,17.037 6.974,18.827 6.972,21.035 C6.974,23.244 8.764,25.033 10.972,25.035 C13.181,25.033 14.971,23.244 14.972,21.035 L14.972,21.035 Z" id="Fill-78" fill="#8EC91B"></path>
                        <path d="M31,17 L19.42,17 C19.095,17 18.789,17.176 18.602,17.441 C18.415,17.706 18.369,18.057 18.478,18.362 C18.785,19.223 18.972,20.111 18.972,21.031 C18.972,23.238 18.077,25.235 16.626,26.687 C15.174,28.138 13.18,29.034 10.972,29.034 C8.765,29.034 6.771,28.139 5.318,26.688 C3.868,25.236 2.973,23.242 2.972,21.035 C2.973,18.827 3.868,16.816 5.318,15.363 C6.771,13.913 8.765,13 10.972,13 L31,13 L31,17 L31,17 Z M32,11.035 L32,11 L10.972,11 C5.455,11 0.974,15.5 0.972,21.018 C0.974,26.535 5.455,31.024 10.972,31.026 C16.49,31.024 20.971,26.548 20.972,21.031 C20.973,20.324 20.808,19.649 20.602,19 L31.972,19 C32.236,19 32.507,18.911 32.693,18.725 C32.88,18.538 33,18.298 33,18.035 L33,12.035 C33,11.772 32.893,11.514 32.707,11.328 C32.521,11.142 32,11.035 32,11.035 L32,11.035 Z" id="Fill-138" fill="#000000"></path>
                        <path d="M16,0.035 C15.448,0.035 15,0.483 15,1.035 L15,5.035 C15,5.587 15.448,6.035 16,6.035 C16.552,6.035 17,5.587 17,5.035 L17,1.035 C17,0.483 16.552,0.035 16,0.035" id="Fill-139" fill="#000000"></path>
                        <path d="M22.336,3.257 L19.508,6.085 C19.117,6.476 19.117,7.109 19.508,7.5 C19.898,7.89 20.532,7.89 20.922,7.5 L23.751,4.671 C24.141,4.281 24.141,3.647 23.751,3.257 C23.36,2.866 22.727,2.866 22.336,3.257" id="Fill-140" fill="#000000"></path>
                        <path d="M8.194,3.257 C7.804,3.647 7.804,4.281 8.194,4.671 L11.023,7.5 C11.413,7.89 12.046,7.89 12.437,7.5 C12.827,7.109 12.827,6.476 12.437,6.085 L9.609,3.257 C9.218,2.866 8.585,2.866 8.194,3.257" id="Fill-141" fill="#000000"></path>
                    </g>
                </g>
            </g>
        </g>
    </g>
</svg>