<svg width="32px" height="27px" viewBox="0 0 32 27" version="1.1" xmlns="http://www.w3.org/2000/svg" xmlns:xlink="http://www.w3.org/1999/xlink">
  <desc>Created with Sketch.</desc>
  <defs></defs>
  <g id="Page-1" stroke="none" stroke-width="1" fill="none" fill-rule="evenodd">
    <g id="Checkout_01" transform="translate(-190.000000, -575.000000)">
      <g id="4-Icons" transform="translate(190.000000, 575.000000)">
        <path d="M19.078,12.588 L17.973,14.799 L14.867,8.588 C14.697,8.248 14.352,8.035 13.973,8.035 C13.593,8.035 13.248,8.248 13.078,8.588 L11.354,12.035 L2.973,12.035 L2.973,14.035 L11.973,14.035 C12.352,14.035 12.697,13.822 12.867,13.482 L13.973,11.271 L17.078,17.482 C17.248,17.822 17.593,18.035 17.973,18.035 C18.352,18.035 18.697,17.822 18.867,17.482 L20.591,14.035 L28.973,14.035 L28.973,12.035 L19.973,12.035 C19.593,12.035 19.248,12.248 19.078,12.588" id="Fill-51" fill="#8EC91B"></path>
        <path d="M7.973,2.035 C8.37,2.035 8.775,2.073 9.185,2.151 C10.358,2.374 11.466,3.035 12.371,3.941 L15.265,6.836 C15.451,7.022 15.709,7.129 15.973,7.129 C16.236,7.129 16.493,7.022 16.68,6.836 L19.574,3.941 C20.479,3.035 21.587,2.374 22.76,2.151 C23.17,2.073 23.575,2.035 23.973,2.035 C25.733,2.038 27.35,2.77 28.516,4.109 L29.271,3.453 L28.516,4.109 C29.396,5.12 29.834,6.464 29.834,7.865 C29.837,9.581 29.165,11.341 27.972,12.528 L16.68,23.82 C16.482,24.017 16.232,24.112 15.973,24.113 C15.713,24.112 15.463,24.017 15.265,23.82 L3.973,12.528 C2.78,11.341 2.108,9.581 2.111,7.865 C2.111,6.464 2.549,5.12 3.429,4.109 C4.595,2.77 6.212,2.038 7.973,2.035 Z M15.973,26.113 C16.737,26.114 17.511,25.818 18.094,25.234 L29.386,13.942 C30.996,12.326 31.831,10.086 31.834,7.865 C31.834,6.055 31.268,4.228 30.026,2.797 C28.492,1.027 26.298,0.032 23.973,0.035 C23.448,0.035 22.916,0.085 22.384,0.187 C20.729,0.506 19.292,1.396 18.16,2.527 L15.973,4.715 L13.785,2.527 C12.653,1.396 11.216,0.506 9.561,0.187 C9.029,0.085 8.498,0.035 7.973,0.035 C5.647,0.033 3.453,1.027 1.919,2.797 C0.677,4.228 0.111,6.055 0.111,7.865 C0.114,10.086 0.949,12.326 2.559,13.942 L13.851,25.234 C14.434,25.818 15.208,26.114 15.973,26.113 Z" id="Fill-122" fill="#000000"></path>
      </g>
    </g>
  </g>
</svg>