<?xml version="1.0" encoding="UTF-8"?>
<svg width="33px" height="33px" viewBox="0 0 33 33" version="1.1" xmlns="http://www.w3.org/2000/svg" xmlns:xlink="http://www.w3.org/1999/xlink">
    <!-- Generator: Sketch 43.2 (39069) - http://www.bohemiancoding.com/sketch -->
    <title>icon_ball</title>
    <desc>Created with Sketch.</desc>
    <defs></defs>
    <g id="Page-1" stroke="none" stroke-width="1" fill="none" fill-rule="evenodd">
        <g id="league" transform="translate(-191.000000, -459.000000)">
            <g transform="translate(120.000000, 180.000000)" id="Group">
                <g transform="translate(71.000000, 219.000000)">
                    <g id="icon_ball" transform="translate(0.000000, 60.000000)">
                        <path d="M20.972,6.035 C17.998,6.035 15.261,7.048 13.069,8.731 C13.054,8.533 13.029,8.336 13.029,8.137 C13.031,5.794 13.968,3.482 15.901,1.906 C16.329,1.558 16.393,0.928 16.045,0.5 C15.696,0.071 15.066,0.007 14.638,0.356 C12.192,2.348 11.026,5.268 11.029,8.137 C11.022,11.446 12.744,14.743 15.989,16.612 C15.986,18.542 15.32,20.219 14.245,21.543 C11.719,20.741 9.475,19.047 8.044,16.571 C7.043,14.836 6.569,12.949 6.569,11.082 C6.568,8.852 7.248,6.655 8.521,4.812 C8.835,4.358 8.721,3.735 8.267,3.421 C7.812,3.107 7.189,3.221 6.875,3.676 C5.37,5.857 4.569,8.447 4.569,11.082 C4.568,13.287 5.132,15.527 6.312,17.571 C7.8,20.148 10.048,22.012 12.602,23.068 C11.269,23.998 9.666,24.535 8.019,24.534 C7.106,24.533 6.18,24.373 5.272,24.027 C4.756,23.831 4.179,24.09 3.982,24.606 C3.786,25.123 4.045,25.7 4.561,25.897 C5.7,26.33 6.871,26.534 8.019,26.534 C10.62,26.532 13.101,25.497 14.944,23.741 C15.077,23.614 15.198,23.476 15.324,23.341 C15.343,23.321 15.364,23.305 15.38,23.283 C16.97,21.563 17.99,19.247 17.989,16.609 C19.254,15.885 20.576,15.538 21.877,15.537 C22.286,15.537 22.692,15.575 23.093,15.638 C23.265,16.417 23.376,17.209 23.376,18.01 C23.376,19.877 22.902,21.764 21.901,23.499 C19.863,27.029 16.167,29 12.363,29.001 C12.069,29.001 11.774,28.989 11.479,28.965 C10.928,28.921 10.446,29.331 10.401,29.882 C10.357,30.432 10.767,30.914 11.318,30.959 C11.666,30.987 12.015,31.001 12.363,31.001 C16.853,31.003 21.225,28.668 23.633,24.499 C24.813,22.455 25.377,20.216 25.376,18.01 C25.376,17.437 25.337,16.867 25.262,16.302 C27.541,17.374 29.318,19.495 29.744,22.172 C29.832,22.717 30.345,23.087 30.891,22.999 C31.436,22.911 31.806,22.398 31.718,21.853 C31.042,17.714 27.878,14.68 24.108,13.804 C24.087,13.8 24.068,13.792 24.046,13.79 C23.339,13.63 22.613,13.537 21.877,13.537 C20.231,13.536 18.539,13.962 16.964,14.871 C15.302,13.905 14.164,12.505 13.559,10.926 C15.518,9.135 18.109,8.036 20.972,8.035 C25.364,8.034 29.151,10.607 30.917,14.327 C31.154,14.826 31.75,15.039 32.249,14.802 C32.748,14.566 32.961,13.969 32.724,13.47 C30.641,9.075 26.16,6.036 20.972,6.035" id="Fill-22" fill="#8EC91B"></path>
                        <path d="M4.848,9.035 C7.438,4.549 12.152,2.039 16.997,2.038 C19.371,2.038 21.771,2.64 23.972,3.911 C28.459,6.5 30.968,11.214 30.97,16.06 C30.969,18.434 30.367,20.834 29.097,23.035 C26.507,27.521 21.793,30.031 16.948,30.032 C14.574,30.032 12.174,29.43 9.972,28.159 C5.486,25.57 2.976,20.856 2.975,16.01 C2.976,13.636 3.577,11.237 4.848,9.035 L4.848,9.035 Z M8.972,29.891 C11.484,31.342 14.236,32.033 16.948,32.032 C22.478,32.034 27.868,29.163 30.829,24.035 C32.279,21.524 32.97,18.772 32.97,16.06 C32.971,10.529 30.1,5.14 24.972,2.179 C22.461,0.728 19.709,0.037 16.997,0.038 C11.467,0.037 6.077,2.907 3.116,8.035 C1.666,10.546 0.975,13.298 0.975,16.01 C0.974,21.541 3.845,26.93 8.972,29.891 L8.972,29.891 Z" id="Fill-111" fill="#000000"></path>
                    </g>
                </g>
            </g>
        </g>
    </g>
</svg>