<?xml version="1.0" encoding="UTF-8"?>
<svg width="32px" height="46px" viewBox="0 0 16 23" version="1.1" xmlns="http://www.w3.org/2000/svg" xmlns:xlink="http://www.w3.org/1999/xlink">
    <!-- Generator: Sketch 43.2 (39069) - http://www.bohemiancoding.com/sketch -->
    <title>Combined Shape</title>
    <desc>Created with Sketch.</desc>
    <defs></defs>
    <g id="Page-1" stroke="none" stroke-width="1" fill="none" fill-rule="evenodd">
        <g id="search_05" transform="translate(-1051.000000, -647.000000)" fill="#2EA8CB">
            <g id="Group-2" transform="translate(70.000000, 586.000000)">
                <g id="Group-5">
                    <path d="M989.581784,83.3932987 C989.260474,83.8388275 988.733826,83.8342186 988.411741,83.3841876 C988.411741,83.3841876 981,73.3794709 981,68.975 C981,64.5705291 984.581722,61 989,61 C993.418278,61 997,64.5705291 997,68.975 C997,73.3794709 989.581784,83.3932987 989.581784,83.3932987 Z M989,72.2 C990.767311,72.2 992.2,70.7673112 992.2,69 C992.2,67.2326888 990.767311,65.8 989,65.8 C987.232689,65.8 985.8,67.2326888 985.8,69 C985.8,70.7673112 987.232689,72.2 989,72.2 Z" id="Combined-Shape"></path>
                </g>
            </g>
        </g>
    </g>
</svg>