<?xml version="1.0" encoding="UTF-8" standalone="no"?>
<svg width="431px" height="374px" viewBox="0 0 431 374" version="1.1" xmlns="http://www.w3.org/2000/svg" xmlns:xlink="http://www.w3.org/1999/xlink">
    <!-- Generator: Sketch 48.2 (47327) - http://www.bohemiancoding.com/sketch -->
    <title>Australia Map</title>
    <desc>Created with Sketch.</desc>
    <defs></defs>
    <g id="Artboard" stroke="none" stroke-width="1" fill="none" fill-rule="evenodd" transform="translate(-1046.000000, -799.000000)">
        <g id="Australia-Map" transform="translate(1046.000000, 799.000000)">
            <path d="M337.140029,335.066736 L337.217953,334.251583 L337.140029,334.173949 L336.750407,334.717385 L336.360785,334.911469 L336.750407,336.153607 L337.140029,335.066736 L337.140029,335.066736 Z M374.621678,332.58246 L373.258,333.319979 L371.816398,333.281162 L371.270927,333.591697 L371.387814,333.902231 L372.206021,334.5233 L373.335925,334.600934 L374.426867,334.2904 L374.777527,335.105553 L375.400922,335.027919 L376.180166,334.2904 L375.556771,333.475246 L374.621678,332.58246 L374.621678,332.58246 Z M430.142831,190.474105 L428.857078,188.33918 L428.584343,186.553607 L428.116796,185.156201 L426.090761,181.080436 L425.272555,178.71261 L425.818026,176.267151 L424.999819,168.620239 L425.818026,164.816191 L425.389441,164.272756 L424.376424,163.690503 L423.908877,163.069434 L423.207557,161.672029 L423.129633,158.799585 L421.804918,157.052828 L420.402278,156.237675 L419.428223,154.801453 L418.765865,153.675765 L418.687941,152.977063 L418.298319,151.890192 L417.207377,151.075039 L416.428132,150.648054 L414.830682,149.638817 L414.012475,148.551946 L412.453987,145.368967 L411.63578,144.553814 L410.194178,143.622211 L408.98635,143.622211 L408.168143,143.38931 L405.47975,141.215568 L404.661544,140.71095 L403.843338,139.85698 L402.83032,138.808926 L402.206925,137.993773 L401.271831,137.17862 L400.648436,134.073275 L400.648436,131.045563 L400.375701,127.513233 L399.440607,125.72766 L398.895137,125.145407 L398.310703,125.339491 L398.232779,126.426362 L398.388628,127.241515 L397.960043,127.319149 L396.596366,126.348729 L394.765142,125.300675 L393.869011,124.174987 L393.089767,123.126933 L392.505334,123.16575 L392.076749,123.321017 L391.609203,124.679606 L392.349485,127.086248 L391.998825,127.396783 L391.414392,126.736897 L390.440336,125.533576 L389.816941,125.999377 L389.115621,126.154645 L388.414301,124.951323 L387.86883,124.13617 L387.050624,121.651894 L386.349304,118.934717 L386.310342,116.799792 L384.985626,115.751738 L384.440155,113.772081 L384.011571,113.151012 L383.621949,111.792423 L382.102423,109.968033 L380.582896,108.725895 L379.219219,107.639024 L378.167239,105.892268 L378.71271,104.688947 L379.530917,104.999481 L380.349123,104.844214 L379.608841,103.640893 L378.868559,102.825739 L377.193184,101.23425 L376.41394,100.846082 L374.894413,100.457914 L373.024227,99.0216917 L371.933285,98.4006227 L371.115079,98.2453555 L370.218948,98.0124546 L369.517628,97.1973015 L368.387724,96.886767 L366.712349,95.2952776 L365.894142,93.7037883 L365.50452,93.0050856 L364.881125,92.5392839 L364.062918,92.8498184 L363.322636,93.0050856 L361.881034,92.7333679 L361.374525,92.0734821 L360.439432,91.258329 L358.608208,91.0254281 L357.166606,90.4819927 L356.075664,89.9385573 L355.023685,89.2010379 L354.010667,88.1918007 L353.153498,86.7555786 L353.34831,84.8535547 L353.621045,83.6502335 L352.452179,83.0679813 L350.426144,80.6225221 L350.348219,79.5744681 L350.89369,77.4395433 L351.478123,73.7131292 L350.659917,70.9959523 L349.101428,67.6577063 L349.218315,65.9885833 L348.400108,65.9109497 L347.581902,65.6004152 L346.374073,63.9312922 L345.516905,62.8832382 L344.854547,61.9128179 L344.114265,60.5542294 L344.231152,59.5061754 L344.387001,58.7298391 L344.464925,56.8278153 L343.646718,54.9257914 L343.296059,53.0237675 L342.477852,50.5783083 L342.711625,48.9868189 L342.516814,47.7446809 L342.244079,46.6189933 L342.516814,45.8038402 L342.633701,44.9498703 L341.542759,44.0959004 L340.33493,43.2807473 L338.776442,42.1162429 L336.010125,40.214219 L335.23088,38.7003633 L334.139939,37.4194084 L332.542488,38.0016606 L331.373621,38.2345615 L330.321642,39.166165 L328.802115,39.9813181 L327.360513,39.2437987 L326.581269,38.6615464 L326.035798,36.6042553 L325.256554,34.4305138 L324.711083,33.4212766 L324.243536,32.1791386 L324.672121,29.0349766 L324.009763,27.5599377 L323.853914,25.3085625 L323.230519,22.707836 L322.490237,21.5433316 L322.529199,20.5340944 L321.360333,19.0202387 L320.970711,18.0498184 L320.308353,17.6616502 L319.451184,16.9629476 L319.334298,16.1089777 L319.412222,15.4879087 L319.918731,14.5174883 L320.191466,13.2365335 L319.061562,12.925999 L318.243356,12.8871821 L317.61996,12.4601972 L316.879678,11.7614946 L316.645905,9.70420343 L316.684867,7.56927867 L316.490056,6.28832382 L316.139396,5.31790348 L315.866661,4.34748313 L315.243265,3.29942916 L313.373079,1.86320706 L313.56789,1.24213804 L314.035437,0.426984951 L313.295155,0 L312.437986,0 L311.931477,0.970420343 L311.113271,1.78557343 L309.359971,2.48427608 L309.048273,5.97778931 L308.11318,9.82065387 L307.256012,12.6154645 L307.41186,13.4306175 L307.333936,14.2457706 L306.827427,13.8576025 L306.359881,13.3529839 L305.619599,14.4786715 L304.41177,17.3122989 L304.255921,18.748521 L305.035165,19.2143228 L305.580636,19.6413077 L306.204032,19.7577582 L306.554692,20.1459263 L306.710541,20.9610794 L307.100163,21.5821484 L306.983276,22.3196679 L306.51573,22.086767 L305.541674,22.086767 L305.035165,22.6690192 L303.749412,23.8335236 L304.177997,27.1717696 L303.476677,28.957343 L302.853282,30.2771147 L302.151962,32.8002076 L302.307811,34.1587961 L302.853282,35.0903996 L303.554601,36.5266217 L303.164979,38.5062792 L302.697433,39.8648677 L303.515639,43.9018163 L303.788375,46.1531915 L303.281866,47.5894136 L301.918188,51.9368967 L301.294793,55.1198755 L301.489604,56.9054489 L300.905171,58.5357551 L300.125927,61.058848 L299.30772,63.0773223 L296.697252,67.0754541 L296.112819,68.9774779 L295.294612,71.4229372 L293.346502,72.7815257 L291.9049,73.6354956 L288.709998,74.4506487 L286.878774,74.4506487 L285.943681,73.8295797 L285.359248,73.3637779 L283.177364,72.5874416 L280.605858,70.840685 L278.462936,70.2972496 L277.566805,68.550493 L277.449919,67.7353399 L277.099259,66.8425532 L276.047279,65.6780488 L274.021244,65.1734302 L271.917284,64.3582771 L270.709456,64.4359107 L267.943139,63.6595745 L266.111915,62.6115205 L264.43654,61.0976648 L262.176731,58.5357551 L260.267583,57.7594188 L257.812963,56.7113648 L256.449286,55.8185781 L255.631079,55.3915931 L254.812873,54.7317073 L253.994666,54.8869746 L252.47514,54.8869746 L251.656934,54.1882719 L251.540047,53.6448365 L251.695896,53.2566684 L251.734858,52.4803321 L251.42316,52.3250649 L251.033538,52.3250649 L250.721841,52.5579657 L250.332218,52.713233 L249.163352,52.5967826 L247.332128,51.7816295 L246.903544,50.9664764 L246.31911,50.0736897 L243.864491,48.6374676 L242.422889,47.4729632 L239.227988,45.7650234 L238.487706,44.8334198 L238.21497,44.0570835 L237.981197,43.0866632 L238.721479,42.0386092 L239.461761,41.262273 L241.682607,38.0792942 L242.383927,37.3805916 L243.202133,36.5654385 L244.02034,34.1587961 L244.409962,32.8778412 L243.708642,30.8593669 L243.66968,27.4823041 L246.124299,26.2013492 L246.903544,26.0072652 L247.604863,25.7355475 L248.384108,26.1237156 L248.929579,26.7836015 L249.47505,26.7059678 L250.838727,24.2993254 L250.604954,23.3677218 L250.020521,22.5525688 L250.215332,21.9703166 L254.540137,17.3511157 L253.994666,16.3418786 L253.293347,16.0313441 L252.085518,16.1089777 L250.955614,15.1385573 L250.17637,13.3141671 L249.202314,13.2365335 L247.37109,15.1385573 L247.137317,15.6431759 L247.604863,15.8760768 L248.033448,17.0017644 L247.293166,18.3215361 L246.474959,18.3603529 L245.306093,18.2439024 L244.760622,17.3122989 L244.448924,15.7984432 L243.66968,15.410275 L242.851474,15.7208095 L242.111191,16.2642449 L241.604683,16.4195122 L241.137136,16.0701609 L241.137136,15.410275 L242.189116,14.4010379 L243.007322,13.741152 L243.085247,13.4306175 L242.383927,13.2365335 L242.461851,12.7319149 L243.280058,11.877945 L242.96836,11.877945 L241.994305,12.7707317 L240.903363,13.2753503 L239.461761,14.3622211 L237.396764,15.1385573 L235.955162,16.1089777 L233.929127,15.7984432 L232.097903,14.8668396 L231.669318,14.3234043 L230.773187,13.5082512 L228.747152,14.3234043 L227.461399,14.2457706 L226.76008,13.9352361 L225.552251,13.7799689 L224.539233,12.9648158 L222.084614,11.877945 L219.513108,11.6062273 L218.227355,11.6838609 L217.331224,11.0627919 L216.435093,10.6746238 L214.525945,10.6746238 L213.7467,9.85947068 L212.811607,8.03508044 L212.14925,7.49164504 L211.058308,7.33637779 L209.928404,8.15153088 L209.188121,8.57851583 L207.863406,7.06466009 L205.486711,5.58962117 L204.668505,5.3955371 L204.278883,5.74488843 L204.006147,6.56004152 L203.499638,6.59885833 L202.915205,6.24950701 L202.058037,5.3955371 L201.395679,5.24026985 L200.032001,6.01660612 L200.109926,6.32714063 L201.395679,6.87057602 L202.759356,8.19034769 L203.460676,8.46206539 L204.980202,8.07389725 L207.0452,8.38443176 L209.227084,10.0535547 L208.915386,10.8687078 L208.720575,11.9943954 L208.720575,13.1588998 L208.720575,13.9740529 L209.538781,14.9056565 L209.149159,14.9832901 L208.175104,14.7503892 L207.356897,15.0221069 L206.616615,15.4879087 L206.34388,16.885314 L205.915296,16.2642449 L204.668505,15.7208095 L203.889261,16.1089777 L202.64247,16.7300467 L201.551528,16.4971458 L200.772283,16.1866113 L199.018984,16.6912299 L196.018894,16.6524131 L195.044838,15.9537104 L194.73314,14.7503892 L194.460405,14.4398547 L194.148707,14.9832901 L193.681161,15.6819927 L191.849937,15.7596264 L191.499277,16.1089777 L191.616163,16.7300467 L191.538239,17.5451998 L190.758995,17.6228334 L189.940788,17.8557343 L190.018713,18.748521 L190.213524,19.5248573 L189.862864,19.8742086 L188.927771,19.2143228 L188.460224,18.3991697 L187.797867,18.2050856 L187.213433,18.4768033 L187.057585,19.175506 L187.135509,20.844629 L186.629,21.038713 L185.382209,20.9998962 L184.797776,21.3104307 L183.940607,23.3677218 L182.421081,24.1828749 L182.109383,25.2309289 L182.031459,26.0848988 L183.317212,27.7540218 L182.615892,28.5691749 L181.87561,29.3066943 L181.213253,29.6172289 L179.771651,29.9665802 L178.797595,30.7817333 L178.291087,31.5968864 L178.213162,32.4120394 L178.057313,33.1883757 L177.550805,34.2752465 L177.47288,35.012766 L176.576749,35.6726518 L174.901374,37.5358588 L174.083168,39.4378827 L175.135147,40.4471199 L176.459863,41.262273 L177.317031,41.262273 L177.317031,41.4175402 L176.4209,42.2326933 L177.044296,43.0478464 L177.940427,43.8241827 L178.563822,43.9406331 L179.109293,44.2511676 L178.213162,44.4064349 L176.888447,44.5228853 L176.615711,45.3380384 L176.77156,46.1920083 L177.005334,47.0071614 L176.849485,47.5894136 L176.304014,47.2012455 L176.07024,46.5413596 L175.018261,45.3768552 L174.161092,44.8334198 L172.953263,44.5228853 L172.641566,44.9110535 L172.641566,46.8130773 L172.407792,47.6282304 L171.979208,47.084795 L171.862321,45.7262065 L170.732417,44.6781526 L166.329687,43.6300986 L165.628367,43.552465 L164.654312,43.7077322 L163.875068,44.173534 L163.797143,44.6393358 L163.407521,44.7169694 L162.589315,45.1051375 L161.887995,45.7650234 L161.420448,46.3472756 L161.342524,47.0459782 L161.965919,48.1716658 L162.316579,48.5598339 L162.277617,49.1420861 L161.654222,48.5210171 L161.186675,48.3657499 L160.641204,49.180903 L160.173658,49.374987 L160.290544,46.8518941 L160.797053,45.1051375 L161.186675,44.1347172 L161.654222,43.3195641 L161.420448,42.8537623 L158.381396,40.4083031 L157.056681,38.4286456 L156.121587,37.3805916 L154.679986,36.3325376 L153.861779,35.633835 L152.108479,34.585781 L150.00452,33.8870784 L149.108389,32.916658 L148.017447,32.5673067 L146.692732,33.0719253 L146.614807,33.964712 L146.770656,34.7798651 L145.757639,36.1772704 L144.588772,36.9924235 L143.692641,36.1384536 L142.874435,35.4785677 L142.056229,35.9443695 L141.744531,36.7595226 L141.238022,36.9147898 L140.887362,36.3713544 L140.341891,35.2456668 L139.640571,34.7022314 L138.939251,34.9351323 L139.134063,35.8667359 L139.562647,36.3713544 L139.44576,37.1865075 L138.939251,37.5746757 L138.861327,38.3121951 L138.549629,39.2049818 L138.549629,40.5247535 L137.731423,40.7964712 L137.108027,41.7668915 L136.640481,41.5339907 L136.484632,40.835288 L136.289821,40.0589517 L135.432652,39.8260509 L135.120955,40.5247535 L134.965106,40.7188376 L134.614446,40.7964712 L134.809257,40.214219 L134.809257,39.2826155 L135.120955,38.2733783 L134.302748,37.8852102 L133.874164,38.1181111 L133.874164,38.972081 L133.718315,40.214219 L132.900108,40.4859367 L132.081902,41.1458225 L131.107847,41.1458225 L130.484451,41.3787234 L130.328602,42.1550597 L129.471434,42.931396 L129.471434,43.746549 L130.211716,44.5617021 L130.211716,45.3768552 L131.69228,46.1531915 L131.614355,46.9683446 L131.34162,47.3953295 L130.718225,47.2400623 L129.549358,46.463726 L128.34153,46.3860924 L127.99087,46.0755579 L127.835021,46.2308251 L127.835021,46.8130773 L127.28955,47.2400623 L126.549268,47.2788791 L125.731061,47.8611313 L126.315494,48.6762844 L126.198608,49.0256357 L126.510306,49.4914375 L127.718134,49.5690711 L128.263605,49.4138038 L128.34153,50.2289569 L128.146718,50.9276596 L127.64021,51.2381941 L127.094739,50.5394914 L125.107666,48.7151012 L124.48427,48.5986508 L124.289459,49.0256357 L124.445308,49.5690711 L123.899837,50.2677737 L123.081631,51.0829268 L122.458235,50.8500259 L121.678991,51.0829268 L121.250407,52.4026985 L120.977671,53.8389206 L121.795878,54.8093409 L122.341349,56.051479 L123.393329,54.4599896 L123.860875,54.2270887 L123.860875,55.003425 L123.432291,55.7797613 L123.159555,56.6337312 L123.042669,57.5653347 L122.302387,57.5653347 L121.48418,57.4100675 L121.289369,57.7982356 L120.938709,58.5745719 L121.172482,59.583809 L121.717953,59.9719772 L122.925782,59.9719772 L123.899837,60.0496108 L124.795968,60.3989621 L124.951817,60.7871303 L124.133611,60.631863 L122.458235,60.7094966 L121.640029,60.5542294 L120.042578,60.631863 L118.873712,59.9719772 L118.211354,59.3120913 L117.393148,59.1568241 L116.73079,59.389725 L116.224281,60.204878 L115.600886,60.4377789 L114.237208,58.3804878 L113.38004,58.2252206 L112.951455,58.7298391 L113.38004,59.9719772 L113.146266,60.7871303 L112.639758,61.4858329 L111.9774,61.4470161 L111.62674,61.679917 L111.899476,62.2621692 L112.756644,63.5819408 L113.574851,64.2418267 L114.354095,65.0569798 L114.743717,65.8721328 L115.561924,65.7944992 L115.717773,66.4155682 L115.211264,67.2307213 L115.211264,68.4728594 L114.899566,68.550493 L114.470982,68.123508 L113.574851,67.308355 L113.02938,67.1530877 L112.795607,67.3859886 L112.717682,68.0458744 L112.951455,69.4820965 L112.483909,71.6170213 L112.561833,72.2769071 L112.483909,72.8591593 L111.9774,72.4321744 L111.470891,71.6170213 L110.496836,70.4913337 L109.289007,67.6965231 L108.003254,65.8721328 L107.22401,64.2806435 L106.17203,61.252932 L105.548635,61.252932 L104.769391,62.5338869 L103.951184,64.2030099 L103.405713,65.0181629 L102.11996,65.833316 L101.301754,66.6484691 L100.366661,66.9590036 L99.3536431,67.8906072 L98.5743988,68.7057602 L97.5224191,70.6854177 L97.327608,71.8499222 L97.4055325,73.130877 L97.9120412,74.9552673 L98.41855,77.6336274 L99.158832,77.9053451 L99.8601519,78.3711469 L99.5484542,79.1474831 L98.7302477,79.6909185 L96.041855,82.1363778 L94.210631,82.9903477 L93.7041222,83.6502335 L92.9638402,85.008822 L92.0677093,86.677945 L91.5222383,87.6871821 L90.6261074,89.8609237 L88.9507322,92.1899325 L87.2753571,93.8978723 L85.2882842,95.2564608 L84.0804556,95.9163467 L79.4049901,97.8571873 L76.9503706,98.6723404 L72.4697161,99.2157758 L70.4826433,100.069746 L68.0280239,99.7592112 L65.4565178,99.5263103 L61.5992587,102.437571 L58.5212439,103.175091 L55.8718134,103.757343 L54.6639848,104.223145 L52.0145543,105.892268 L50.4560658,106.707421 L47.5338998,107.522574 L46.3260712,107.44494 L44.7286205,106.629787 L43.2090942,106.862688 L41.533719,106.746238 L40.2090038,106.823871 L39.157024,107.483757 L32.8841078,110.97727 L31.6762792,111.870057 L30.3905261,113.151012 L28.5593021,114.431967 L27.1177002,115.868189 L24.0007232,117.382045 L20.8058217,118.507732 L19.208371,119.400519 L18.0784668,120.759107 L16.1303562,124.252621 L15.7017718,125.067774 L14.8835654,125.921744 L13.90951,126.309912 L13.169228,126.620446 L13.4419635,124.87369 L12.6627192,123.321017 L13.2081902,120.370939 L12.9744169,119.516969 L11.9224372,120.138038 L11.2211173,120.836741 L9.50677997,125.106591 L8.33791358,128.444837 L9.15612005,130.385677 L9.50677997,131.472548 L9.50677997,132.675869 L9.15612005,134.112091 L9.15612005,135.198962 L9.0002712,136.712818 L6.85734948,140.206331 L6.11706744,141.720187 L5.29886097,144.592631 L5.22093654,145.873586 L5.29886097,147.930877 L6.15602965,149.677634 L6.8963117,150.725688 L7.94829145,153.86985 L9.19508226,156.043591 L11.338004,160.19699 L13.6757368,163.61287 L13.8315856,164.893825 L13.5978123,166.640581 L13.7536612,168.464971 L13.2861146,169.08604 L12.4679082,169.784743 L11.532815,168.96959 L10.9873441,168.270887 L10.2860242,165.708978 L9.97432652,165.55371 L9.54574218,166.679398 L9.0002712,167.1452 L8.53272464,166.834665 L8.14310251,166.368864 L8.06517809,165.903062 L8.22102694,165.281993 L8.37687579,163.379969 L7.59763153,162.331915 L6.77942506,161.206227 L5.80536973,160.895693 L5.25989875,161.516762 L5.25989875,162.254281 L6.46772735,164.428023 L7.28593383,166.640581 L8.49376243,167.99917 L9.27300669,168.387338 L10.0912132,169.280125 L9.97432652,170.988064 L9.35093112,171.764401 L8.84442235,172.074935 L7.24697161,171.686767 L6.85734948,170.328179 L5.57159646,167.688635 L5.18197433,166.718215 L4.75338998,166.446497 L4.63650334,166.951116 L4.63650334,167.766269 L4.40273007,168.270887 L4.09103236,168.232071 L3.62348581,167.611002 L3.15593925,167.300467 L2.84424155,167.455734 L3.35075032,168.154437 L4.44169228,170.134094 L8.415838,174.986196 L11.8445127,180.653451 L12.623757,182.866009 L13.0133791,187.718111 L13.4030013,188.921432 L15.3900741,191.328075 L17.4161092,194.122885 L17.9615802,195.520291 L17.9615802,196.723612 L18.3901645,197.771666 L20.8447839,200.799377 L21.8578015,204.137623 L22.0136503,205.340944 L21.7019526,207.398236 L21.9357259,211.12465 L22.325348,213.181941 L23.1435545,217.141256 L24.1176098,219.936066 L25.3644007,221.72164 L27.0397758,225.642138 L29.5723197,230.183705 L30.0398662,232.396264 L29.8840174,238.335236 L29.7281685,240.276077 L29.0658109,240.664245 L28.6761888,241.479398 L29.2216597,245.516347 L29.3775086,247.728905 L28.5593021,249.825013 L27.624209,251.68822 L25.9877961,252.969175 L24.0786476,253.007992 L23.2604411,252.270472 L22.2084614,251.455319 L21.9746881,254.793565 L21.9746881,257.704826 L22.3643103,258.791697 L22.3643103,259.995018 L23.5721389,261.004255 L24.3513831,260.57727 L25.1695896,260.538454 L28.2086422,261.974676 L29.9619418,263.13918 L32.6113723,266.322159 L35.0659917,267.137312 L38.1440065,268.573534 L41.9233412,269.039336 L44.8844694,269.116969 L49.4040861,269.932122 L50.4560658,269.582771 L52.4431387,269.34987 L53.8847406,268.845252 L55.248418,268.534717 L59.3004882,265.584639 L63.3135961,262.556928 L65.3396312,262.324027 L67.0929308,262.246393 L69.3137769,261.237156 L71.2618875,258.131811 L72.1969807,257.394292 L73.4827337,256.579139 L77.3399928,256.035703 L79.5608389,256.423871 L80.7297053,255.841619 L83.6908335,255.181733 L89.9247876,254.715931 L93.3534623,255.1041 L95.7301573,255.026466 L96.8990237,255.298184 L97.7561924,256.617955 L104.379769,255.531085 L106.288917,255.414634 L107.496746,255.608718 L108.938347,256.617955 L110.613723,255.686352 L112.094287,255.802802 L113.613813,254.910016 L115.951546,252.154022 L116.964563,250.368448 L118.678901,246.642034 L119.886729,245.361079 L121.250407,244.62356 L122.847858,244.390659 L125.302477,243.65314 L130.718225,240.547794 L132.861146,239.810275 L133.913126,239.228023 L137.653498,236.782564 L140.030193,236.239128 L146.887543,236.937831 L150.082444,236.782564 L152.537064,236.316762 L156.433285,234.99699 L160.485355,234.065387 L165.550443,232.008095 L169.680438,229.834354 L172.212981,229.329735 L176.265052,228.863934 L182.187308,228.281681 L189.044657,228.631033 L190.797957,228.126414 L191.616163,227.738246 L192.78503,227.311261 L194.304556,227.544162 L195.395498,227.93233 L198.824173,229.64027 L204.123034,233.211417 L205.213976,233.405501 L208.720575,232.590348 L209.772555,232.667981 L214.642831,235.191074 L216.629904,235.268708 L218.14943,235.191074 L219.357259,235.501609 L220.643012,236.277945 L222.162538,237.947068 L225.35744,239.538557 L225.552251,240.819512 L225.318478,241.634665 L224.500271,241.712299 L223.837914,241.867566 L224.65612,244.468293 L225.941873,246.719668 L229.214699,247.030202 L230.344603,247.806539 L231.123847,248.621692 L231.825167,249.98028 L232.253752,252.154022 L233.929127,253.900778 L235.448653,255.414634 L235.799313,256.035703 L236.578557,258.209445 L236.851293,258.946964 L237.51365,261.120706 L238.331857,263.566165 L238.098084,263.837883 L237.552613,263.760249 L236.695444,263.100363 L235.877237,262.362844 L235.370729,262.479294 L234.86422,263.02273 L234.786295,263.604982 L235.526577,263.449715 L236.033086,263.566165 L236.929217,264.342501 L237.747424,265.157654 L238.56563,265.662273 L240.357892,267.836015 L241.098174,267.331396 L241.91638,266.904411 L243.280058,268.030099 L243.864491,268.301816 L244.176189,267.797198 L243.630718,265.662273 L243.085247,265.157654 L242.96836,264.342501 L243.630718,263.760249 L243.942415,263.100363 L245.461942,261.508874 L248.734768,256.850856 L249.669861,256.268604 L250.838727,255.298184 L252.358253,254.483031 L254.033629,253.667878 L254.968722,253.202076 L255.942777,253.046809 L257.033719,252.231655 L258.241548,249.86383 L259.137679,247.146653 L260.111734,245.943332 L261.63126,244.662377 L262.722202,242.837987 L262.605315,241.440581 L262.644278,240.043176 L263.462484,241.09123 L264.046917,242.139284 L264.865124,246.020965 L264.08588,246.836118 L263.306635,247.263103 L263.462484,248.582875 L263.968993,250.251998 L264.163804,251.68822 L262.566353,253.124442 L261.202676,254.948832 L259.527301,258.519979 L259.449376,259.568033 L259.176641,261.004255 L259.254565,262.28521 L259.527301,263.527348 L259.098716,265.507006 L258.436359,267.253762 L257.57919,267.331396 L256.916832,267.253762 L255.631079,267.447846 L254.462213,267.331396 L253.137498,271.174261 L253.955704,271.407161 L254.618062,271.174261 L255.82589,271.174261 L257.150606,270.436741 L259.33249,269.970939 L260.423432,270.20384 L261.709185,270.126207 L263.696257,265.235288 L264.163804,262.013492 L265.137859,260.57727 L265.449557,259.645667 L265.995028,258.791697 L266.969083,260.383186 L267.78729,261.974676 L269.618514,264.420135 L270.163985,265.662273 L270.475683,268.728801 L269.306816,272.299948 L268.566534,273.309185 L267.748328,274.163155 L266.969083,275.599377 L269.189929,275.987545 L270.592569,275.987545 L272.813415,274.978308 L273.319924,274.823041 L274.332942,274.784224 L274.83945,274.163155 L275.852468,273.580903 L276.670674,272.921017 L277.64473,272.377582 L278.618785,272.76575 L278.813596,273.037468 L279.086332,273.386819 L278.696709,274.163155 L278.657747,275.599377 L277.99539,275.405293 L277.410956,274.551323 L276.670674,274.861858 L276.125203,275.521744 L275.151148,275.32766 L275.345959,275.793461 L275.89143,276.608614 L278.151238,278.238921 L280.527933,280.490296 L281.34614,281.460716 L283.333213,284.721328 L284.618966,288.214842 L284.541041,289.224079 L283.800759,291.087286 L283.294251,292.950493 L283.294251,293.882097 L283.800759,295.163051 L284.735852,296.405189 L288.320376,299.937519 L290.190562,302.926414 L292.645182,304.517903 L296.697252,305.177789 L298.879136,306.26466 L301.177906,308.710119 L301.957151,308.904203 L302.970168,309.020654 L304.294883,307.584432 L306.476767,307.739699 L309.243084,309.137104 L310.840535,308.787753 L312.048364,308.981837 L313.723739,309.79699 L316.139396,311.38848 L318.67194,312.203633 L320.191466,313.368137 L321.360333,313.523404 L323.464292,314.338557 L325.061743,313.678672 L326.308534,312.863518 L329.425511,309.991074 L331.841168,308.632486 L333.126921,308.08905 L334.062014,307.817333 L335.308805,306.963363 L334.490598,306.303477 L333.672392,306.419927 L332.386639,306.070576 L333.204845,305.604774 L334.023052,305.255423 L337.763424,303.120498 L338.73748,303.741567 L339.477762,304.517903 L340.295968,305.41069 L339.711535,306.846912 L339.127102,307.506798 L338.03616,308.516035 L336.672482,308.516035 L335.9322,308.438402 L337.295878,309.564089 L338.464744,310.379242 L340.919364,308.94302 L341.542759,307.817333 L342.049268,307.196264 L342.867474,307.00218 L343.997378,307.273897 L344.542849,308.08905 L344.776623,309.059471 L343.958416,309.292372 L343.529832,310.107525 L343.257096,310.845044 L344.698698,311.699014 L345.477943,312.320083 L346.374073,312.320083 L347.387091,312.436533 L348.205297,313.756305 L348.945579,315.270161 L349.802748,314.804359 L350.387181,314.338557 L351.322274,314.804359 L352.257368,315.930047 L353.075574,317.288635 L353.153498,317.987338 L353.854818,318.220239 L354.478214,317.832071 L354.789911,317.133368 L354.789911,316.162948 L354.556138,314.493825 L354.166516,314.18329 L353.270385,315.076077 L352.64699,314.299741 L351.906708,313.601038 L351.906708,312.902335 L352.724914,312.514167 L353.465196,312.747068 L354.283403,312.747068 L358.725095,312.048365 L364.413578,306.575195 L366.90716,304.595537 L369.478666,303.081681 L372.128096,302.266528 L373.452811,301.87836 L380.738745,301.334925 L384.51808,301.490192 L386.466191,301.102024 L387.284397,300.636222 L388.803923,299.277634 L389.855903,298.462481 L391.102694,298.22958 L391.531278,297.259159 L391.531278,296.211105 L391.765052,295.163051 L391.336467,292.911676 L391.414392,290.155682 L391.765052,288.71946 L392.583258,286.584536 L392.894956,284.449611 L393.245616,281.615983 L393.557313,279.83041 L393.985898,278.200104 L394.998915,276.41453 L395.817122,275.250026 L397.921081,270.94136 L398.622401,270.436741 L399.284759,270.436741 L399.557494,270.165023 L399.635419,269.932122 L399.635419,269.932122 L399.362683,269.388687 L399.557494,268.884069 L400.18089,268.4959 L400.453625,268.651168 L400.804285,268.573534 L400.843247,268.340633 L400.531549,267.137312 L400.999096,265.468189 L401.583529,262.518111 L402.206925,261.198339 L402.557585,260.227919 L403.921262,258.675246 L405.401826,257.083757 L404.93428,256.92849 L404.193997,256.734406 L404.700506,256.346238 L405.090128,256.268604 L405.557675,256.501505 L405.947297,255.763985 L406.025221,254.754748 L406.414844,253.163259 L406.064184,251.80467 L406.804466,251.338869 L407.622672,251.067151 L408.012294,249.592112 L408.246068,249.00986 L408.752576,248.427608 L409.570783,247.263103 L410.311065,246.098599 L411.830591,243.730773 L413.233231,242.876803 L415.570964,242.06165 L415.804737,241.673482 L415.220304,241.324131 L415.259266,241.09123 L416.077472,241.09123 L416.38917,240.276077 L417.246339,239.655008 L418.726903,238.257602 L419.194449,237.093098 L419.584072,236.083861 L419.661996,233.754852 L422.116615,230.804774 L423.791991,226.767826 L424.298499,224.244733 L424.688121,222.808511 L424.999819,220.75122 L424.766046,218.577478 L424.766046,216.753088 L426.441421,212.21152 L426.870005,210.309497 L427.376514,209.106175 L428.194721,204.603425 L428.194721,202.235599 L429.402549,199.518422 L430.922076,197.267047 L431,195.170939 L430.454529,193.57945 L430.142831,190.474105 L430.142831,190.474105 Z M245.968451,32.1403217 L245.656753,32.3344058 L245.500904,32.6449403 L245.500904,33.0331085 L246.435997,33.2660093 L246.66977,33.1107421 L247.176279,32.7225739 L246.903544,31.8297872 L246.435997,31.4416191 L245.968451,32.1403217 L245.968451,32.1403217 Z M428.623305,176.927037 L428.038872,177.159938 L427.844061,178.130358 L428.038872,179.178412 L428.506418,180.226466 L428.740192,179.993565 L428.545381,178.790244 L429.012927,176.965854 L428.623305,176.927037 L428.623305,176.927037 Z M373.686585,335.144369 L373.491774,335.066736 L373.219038,334.989102 L372.400832,335.222003 L372.478756,335.532538 L373.219038,336.23124 L373.686585,335.144369 L373.686585,335.144369 Z M340.802477,310.806227 L342.322003,310.728594 L343.14021,311.194395 L343.14021,310.961495 L342.711625,310.340426 L342.399928,310.107525 L341.620683,309.952257 L340.802477,310.806227 L340.802477,310.806227 Z M344.620774,308.710119 L343.958416,308.205501 L342.594739,308.283134 L342.477852,308.516035 L342.399928,309.137104 L343.023323,309.525272 L344.620774,308.710119 L344.620774,308.710119 Z M374.271018,328.623145 L373.95932,328.390244 L373.063189,328.002076 L371.154041,325.789517 L370.452721,325.323716 L369.400741,326.60467 L368.621497,327.109289 L369.166968,327.691541 L369.868288,327.613908 L370.179986,328.429061 L370.024137,328.972496 L371.426776,330.913337 L371.66055,331.495589 L371.972247,331.84494 L372.322907,332.077841 L373.413849,331.72849 L374.271018,330.913337 L374.465829,330.99097 L374.582716,330.563985 L373.803471,330.02055 L374.193093,329.515931 L374.271018,328.623145 L374.271018,328.623145 Z M374.777527,355.018578 L374.621678,354.552776 L374.348942,354.125791 L374.348942,353.698806 L374.504791,352.728386 L374.193093,351.330981 L374.271018,349.196056 L374.193093,348.070368 L374.193093,346.983498 L374.465829,345.547276 L374.348942,344.111053 L374.193093,343.334717 L374.115169,342.558381 L374.271018,340.50109 L373.452811,339.375402 L371.504701,338.443799 L370.764419,338.443799 L369.829326,339.569486 L369.166968,339.569486 L367.063008,339.220135 L366.595462,339.608303 L365.777255,340.733991 L365.270747,341.199792 L364.45254,340.966892 L363.712258,340.578723 L363.166787,340.656357 L362.582354,340.966892 L361.45245,341.083342 L360.205659,341.044525 L359.465377,341.393876 L358.725095,341.898495 L358.491322,342.597198 L358.608208,343.373534 L357.906888,342.597198 L357.205569,342.131396 L356.387362,342.713648 L355.569156,343.062999 L352.880763,343.2959 L350.620955,342.752465 L347.620864,341.587961 L347.075393,341.238609 L346.646809,340.695174 L346.062376,340.462273 L344.932472,339.996471 L344.464925,339.453036 L343.880492,339.297769 L343.296059,339.375402 L342.477852,338.987234 L341.73757,338.210898 L341.075212,338.133264 L340.33493,338.443799 L339.127102,338.443799 L336.711445,337.628646 L336.477671,337.124027 L336.399747,338.482615 L335.698427,340.928075 L335.893238,342.131396 L336.28286,343.567618 L337.023142,345.392008 L337.023142,346.090711 L337.217953,346.440062 L338.620593,349.234873 L340.062195,351.525065 L342.08823,353.970524 L342.283041,355.096212 L342.049268,356.144266 L342.672663,356.066632 L343.14021,355.445563 L343.218134,356.066632 L343.451907,356.610067 L345.127283,358.201557 L345.205207,358.589725 L344.581812,359.948313 L344.153227,358.822626 L343.412945,358.007473 L341.581721,356.726518 L342.049268,359.443695 L342.399928,360.569382 L344.815585,365.421484 L345.127283,365.732019 L345.672754,365.926103 L346.1403,366.353088 L346.958507,367.323508 L348.205297,369.458433 L349.023504,370.157135 L350.036521,369.924235 L351.633972,370.390036 L352.218405,370.234769 L352.569065,370.46767 L352.802839,370.933472 L351.59501,370.933472 L350.426144,371.244006 L350.231332,371.632174 L350.620955,372.17561 L350.504068,373.107213 L351.984632,372.719045 L354.439251,372.796679 L355.880853,372.602595 L357.478304,373.805916 L358.841982,374 L359.309528,373.88355 L360.127735,372.524961 L360.673206,370.855838 L360.984903,370.157135 L361.530374,369.574883 L360.595281,368.798547 L360.556319,368.410379 L360.673206,367.944577 L362.621316,369.186715 L363.439523,368.64328 L363.595372,367.517592 L363.595372,366.818889 L363.790183,366.236637 L364.335654,366.003736 L364.491502,365.343851 L364.569427,364.839232 L364.023956,363.752361 L364.023956,363.092475 L365.15386,364.334613 L365.621407,366.19782 L366.478575,365.615568 L366.634424,365.382667 L366.478575,364.179346 L366.90716,363.713544 L368.15395,364.101713 L369.244892,364.839232 L369.322817,365.188583 L369.244892,365.537935 L368.933195,365.848469 L368.037064,365.537935 L367.647442,366.08137 L368.231875,367.362325 L369.089044,368.604463 L369.634515,368.255112 L370.764419,368.022211 L371.154041,367.711676 L370.920268,365.266217 L370.413759,363.40301 L370.374797,361.423352 L370.530645,360.414115 L371.076116,359.598962 L371.504701,358.706175 L371.465739,357.580488 L371.621587,356.532434 L372.167058,355.48438 L372.790454,354.669227 L373.180076,354.436326 L372.985265,354.203425 L373.296963,353.427089 L373.803471,352.844837 L374.115169,353.582356 L373.686585,353.854074 L373.452811,354.164608 L374.271018,354.669227 L374.504791,355.057395 L374.582716,355.60083 L374.504791,356.183083 L374.66064,356.687701 L375.128187,356.765335 L375.245073,356.144266 L375.128187,355.367929 L374.777527,355.018578 L374.777527,355.018578 Z M372.673567,361.384536 L371.855361,361.074001 L371.30989,361.69507 L371.426776,362.005605 L371.387814,362.743124 L371.621587,362.781941 L372.244983,362.704307 L372.244983,362.316139 L372.985265,361.850337 L372.673567,361.384536 L372.673567,361.384536 Z M330.165793,326.177686 L329.854095,324.353295 L328.957964,323.538142 L328.334569,323.576959 L328.256644,324.392112 L327.594287,325.013181 L327.399476,325.478983 L327.438438,326.527037 L327.165702,327.419824 L327.672211,328.390244 L327.555325,329.360664 L327.789098,330.059367 L328.100796,330.02055 L329.2307,329.515931 L330.048906,328.778412 L330.360604,327.963259 L329.970982,326.992839 L330.165793,326.177686 L330.165793,326.177686 Z M264.670313,277.15205 L263.73522,277.617852 L261.2806,277.307317 L261.2806,277.15205 L261.709185,276.336897 L261.163714,275.909912 L260.540318,275.677011 L258.397396,275.482927 L255.903815,276.336897 L251.150425,277.307317 L250.410143,278.044837 L250.020521,278.97644 L250.565992,279.558692 L252.319291,280.645563 L253.994666,280.80083 L255.124571,280.567929 L256.410324,280.723197 L257.111643,280.024494 L258.942867,280.490296 L259.722112,281.227815 L261.202676,280.567929 L261.553336,279.597509 L262.176731,279.054074 L263.852106,278.665906 L265.761255,279.209341 L266.345688,279.054074 L267.008046,278.471821 L266.189839,277.384951 L264.670313,277.15205 L264.670313,277.15205 Z M2.45461942,164.816191 L2.45461942,164.001038 L2.06499729,163.224702 L0.857168686,159.964089 L0.467546556,160.119357 L5.68434189e-14,160.507525 L0.623395408,162.952984 L2.6883927,166.40768 L3.0000904,165.903062 L2.61046827,165.087909 L2.45461942,164.816191 L2.45461942,164.816191 Z M405.090128,137.799689 L404.778431,137.799689 L404.349846,137.566788 L403.492678,137.17862 L403.258904,137.993773 L404.856355,140.322782 L405.440788,140.788583 L405.713524,140.633316 L406.064184,140.089881 L405.83041,139.507628 L405.323902,138.692475 L405.47975,137.877322 L405.090128,137.799689 L405.090128,137.799689 Z M390.946845,122.816399 L391.180618,123.631552 L391.57024,123.2822 L391.57024,122.777582 L391.414392,121.729528 L390.985807,121.962429 L390.946845,122.816399 L390.946845,122.816399 Z M381.985536,102.709289 L382.219309,102.554022 L382.297234,102.398755 L381.829687,101.777686 L381.556952,101.001349 L381.089405,102.359938 L381.634876,102.592839 L381.985536,102.592839 L381.985536,102.709289 L381.985536,102.709289 L381.985536,102.709289 Z M352.685952,80.1955371 L352.491141,80.3508044 L351.984632,80.5060716 L351.088501,80.5060716 L351.322274,81.0106902 L352.140481,81.8258433 L352.685952,82.71863 L353.309347,83.1067981 L353.660007,82.71863 L353.815856,82.097561 L353.309347,81.2824079 L353.153498,80.2731707 L352.685952,80.1955371 L352.685952,80.1955371 Z M381.011481,100.108563 L380.738745,100.496731 L380.504972,100.962532 L380.81667,101.040166 L381.050443,101.040166 L381.284216,100.846082 L381.401103,99.9144785 L381.011481,100.108563 L381.011481,100.108563 Z" id="Shape" fill="#67C5DE"></path>
            <g id="Pin" transform="translate(27.000000, 163.000000)" fill="#1F3C7F">
                <path d="M15,67.5 C15.638396,67.5 16.2574375,67.4274561 16.8571429,67.2823661 L16.8571429,76.7857143 C16.8571429,77.0372036 16.7652539,77.2548354 16.5814732,77.4386161 C16.3976925,77.6223968 16.1800608,77.7142857 15.9285714,77.7142857 L14.0714286,77.7142857 C13.8199392,77.7142857 13.6023075,77.6223968 13.4185268,77.4386161 C13.2347461,77.2548354 13.1428571,77.0372036 13.1428571,76.7857143 L13.1428571,67.2823661 C13.7425625,67.4274561 14.361604,67.5 15,67.5 Z M15,51.7142857 C17.0506055,51.7142857 18.801332,52.4397249 20.2522321,53.890625 C21.7031323,55.3415251 22.4285714,57.0922517 22.4285714,59.1428571 C22.4285714,61.1934626 21.7031323,62.9441892 20.2522321,64.3950893 C18.801332,65.8459894 17.0506055,66.5714286 15,66.5714286 C12.9493945,66.5714286 11.198668,65.8459894 9.74776786,64.3950893 C8.29686775,62.9441892 7.57142857,61.1934626 7.57142857,59.1428571 C7.57142857,57.0922517 8.29686775,55.3415251 9.74776786,53.890625 C11.198668,52.4397249 12.9493945,51.7142857 15,51.7142857 Z M15,54.9642857 C15.1354173,54.9642857 15.2466514,54.9207594 15.3337054,54.8337054 C15.4207594,54.7466514 15.4642857,54.6354173 15.4642857,54.5 C15.4642857,54.3645827 15.4207594,54.2533486 15.3337054,54.1662946 C15.2466514,54.0792406 15.1354173,54.0357143 15,54.0357143 C13.5877906,54.0357143 12.3835615,54.5338492 11.3872768,55.5301339 C10.390992,56.5264187 9.89285714,57.7306477 9.89285714,59.1428571 C9.89285714,59.2782745 9.93638349,59.3895085 10.0234375,59.4765625 C10.1104915,59.5636165 10.2217255,59.6071429 10.3571429,59.6071429 C10.4925602,59.6071429 10.6037942,59.5636165 10.6908482,59.4765625 C10.7779022,59.3895085 10.8214286,59.2782745 10.8214286,59.1428571 C10.8214286,57.9918097 11.2300926,57.0076306 12.047433,56.1902902 C12.8647734,55.3729498 13.8489526,54.9642857 15,54.9642857 Z" id=""></path>
                <path d="M250,91.5 C250.638396,91.5 251.257437,91.4274561 251.857143,91.2823661 L251.857143,100.785714 C251.857143,101.037204 251.765254,101.254835 251.581473,101.438616 C251.397693,101.622397 251.180061,101.714286 250.928571,101.714286 L249.071429,101.714286 C248.819939,101.714286 248.602307,101.622397 248.418527,101.438616 C248.234746,101.254835 248.142857,101.037204 248.142857,100.785714 L248.142857,91.2823661 C248.742563,91.4274561 249.361604,91.5 250,91.5 Z M250,75.7142857 C252.050605,75.7142857 253.801332,76.4397249 255.252232,77.890625 C256.703132,79.3415251 257.428571,81.0922517 257.428571,83.1428571 C257.428571,85.1934626 256.703132,86.9441892 255.252232,88.3950893 C253.801332,89.8459894 252.050605,90.5714286 250,90.5714286 C247.949395,90.5714286 246.198668,89.8459894 244.747768,88.3950893 C243.296868,86.9441892 242.571429,85.1934626 242.571429,83.1428571 C242.571429,81.0922517 243.296868,79.3415251 244.747768,77.890625 C246.198668,76.4397249 247.949395,75.7142857 250,75.7142857 Z M250,78.9642857 C250.135417,78.9642857 250.246651,78.9207594 250.333705,78.8337054 C250.420759,78.7466514 250.464286,78.6354173 250.464286,78.5 C250.464286,78.3645827 250.420759,78.2533486 250.333705,78.1662946 C250.246651,78.0792406 250.135417,78.0357143 250,78.0357143 C248.587791,78.0357143 247.383562,78.5338492 246.387277,79.5301339 C245.390992,80.5264187 244.892857,81.7306477 244.892857,83.1428571 C244.892857,83.2782745 244.936383,83.3895085 245.023438,83.4765625 C245.110492,83.5636165 245.221726,83.6071429 245.357143,83.6071429 C245.49256,83.6071429 245.603794,83.5636165 245.690848,83.4765625 C245.777902,83.3895085 245.821429,83.2782745 245.821429,83.1428571 C245.821429,81.9918097 246.230093,81.0076306 247.047433,80.1902902 C247.864773,79.3729498 248.848953,78.9642857 250,78.9642857 Z" id=""></path>
                <path d="M395,15.5 C395.638396,15.5 396.257437,15.4274561 396.857143,15.2823661 L396.857143,24.7857143 C396.857143,25.0372036 396.765254,25.2548354 396.581473,25.4386161 C396.397693,25.6223968 396.180061,25.7142857 395.928571,25.7142857 L394.071429,25.7142857 C393.819939,25.7142857 393.602307,25.6223968 393.418527,25.4386161 C393.234746,25.2548354 393.142857,25.0372036 393.142857,24.7857143 L393.142857,15.2823661 C393.742563,15.4274561 394.361604,15.5 395,15.5 Z M395,-0.285714286 C397.050605,-0.285714286 398.801332,0.439724888 400.252232,1.890625 C401.703132,3.34152511 402.428571,5.09225165 402.428571,7.14285714 C402.428571,9.19346263 401.703132,10.9441892 400.252232,12.3950893 C398.801332,13.8459894 397.050605,14.5714286 395,14.5714286 C392.949395,14.5714286 391.198668,13.8459894 389.747768,12.3950893 C388.296868,10.9441892 387.571429,9.19346263 387.571429,7.14285714 C387.571429,5.09225165 388.296868,3.34152511 389.747768,1.890625 C391.198668,0.439724888 392.949395,-0.285714286 395,-0.285714286 Z M395,2.96428571 C395.135417,2.96428571 395.246651,2.92075936 395.333705,2.83370536 C395.420759,2.74665135 395.464286,2.63541734 395.464286,2.5 C395.464286,2.36458266 395.420759,2.25334865 395.333705,2.16629464 C395.246651,2.07924064 395.135417,2.03571429 395,2.03571429 C393.587791,2.03571429 392.383562,2.53384919 391.387277,3.53013393 C390.390992,4.52641867 389.892857,5.7306477 389.892857,7.14285714 C389.892857,7.27827449 389.936383,7.38950849 390.023438,7.4765625 C390.110492,7.56361651 390.221726,7.60714286 390.357143,7.60714286 C390.49256,7.60714286 390.603794,7.56361651 390.690848,7.4765625 C390.777902,7.38950849 390.821429,7.27827449 390.821429,7.14285714 C390.821429,5.99180972 391.230093,5.00763057 392.047433,4.19029018 C392.864773,3.37294978 393.848953,2.96428571 395,2.96428571 Z" id=""></path>
                <path d="M369,85.5 C369.638396,85.5 370.257437,85.4274561 370.857143,85.2823661 L370.857143,94.7857143 C370.857143,95.0372036 370.765254,95.2548354 370.581473,95.4386161 C370.397693,95.6223968 370.180061,95.7142857 369.928571,95.7142857 L368.071429,95.7142857 C367.819939,95.7142857 367.602307,95.6223968 367.418527,95.4386161 C367.234746,95.2548354 367.142857,95.0372036 367.142857,94.7857143 L367.142857,85.2823661 C367.742563,85.4274561 368.361604,85.5 369,85.5 Z M369,69.7142857 C371.050605,69.7142857 372.801332,70.4397249 374.252232,71.890625 C375.703132,73.3415251 376.428571,75.0922517 376.428571,77.1428571 C376.428571,79.1934626 375.703132,80.9441892 374.252232,82.3950893 C372.801332,83.8459894 371.050605,84.5714286 369,84.5714286 C366.949395,84.5714286 365.198668,83.8459894 363.747768,82.3950893 C362.296868,80.9441892 361.571429,79.1934626 361.571429,77.1428571 C361.571429,75.0922517 362.296868,73.3415251 363.747768,71.890625 C365.198668,70.4397249 366.949395,69.7142857 369,69.7142857 Z M369,72.9642857 C369.135417,72.9642857 369.246651,72.9207594 369.333705,72.8337054 C369.420759,72.7466514 369.464286,72.6354173 369.464286,72.5 C369.464286,72.3645827 369.420759,72.2533486 369.333705,72.1662946 C369.246651,72.0792406 369.135417,72.0357143 369,72.0357143 C367.587791,72.0357143 366.383562,72.5338492 365.387277,73.5301339 C364.390992,74.5264187 363.892857,75.7306477 363.892857,77.1428571 C363.892857,77.2782745 363.936383,77.3895085 364.023438,77.4765625 C364.110492,77.5636165 364.221726,77.6071429 364.357143,77.6071429 C364.49256,77.6071429 364.603794,77.5636165 364.690848,77.4765625 C364.777902,77.3895085 364.821429,77.2782745 364.821429,77.1428571 C364.821429,75.9918097 365.230093,75.0076306 366.047433,74.1902902 C366.864773,73.3729498 367.848953,72.9642857 369,72.9642857 Z" id=""></path>
                <path d="M311,126.5 C311.638396,126.5 312.257437,126.427456 312.857143,126.282366 L312.857143,135.785714 C312.857143,136.037204 312.765254,136.254835 312.581473,136.438616 C312.397693,136.622397 312.180061,136.714286 311.928571,136.714286 L310.071429,136.714286 C309.819939,136.714286 309.602307,136.622397 309.418527,136.438616 C309.234746,136.254835 309.142857,136.037204 309.142857,135.785714 L309.142857,126.282366 C309.742563,126.427456 310.361604,126.5 311,126.5 Z M311,110.714286 C313.050605,110.714286 314.801332,111.439725 316.252232,112.890625 C317.703132,114.341525 318.428571,116.092252 318.428571,118.142857 C318.428571,120.193463 317.703132,121.944189 316.252232,123.395089 C314.801332,124.845989 313.050605,125.571429 311,125.571429 C308.949395,125.571429 307.198668,124.845989 305.747768,123.395089 C304.296868,121.944189 303.571429,120.193463 303.571429,118.142857 C303.571429,116.092252 304.296868,114.341525 305.747768,112.890625 C307.198668,111.439725 308.949395,110.714286 311,110.714286 Z M311,113.964286 C311.135417,113.964286 311.246651,113.920759 311.333705,113.833705 C311.420759,113.746651 311.464286,113.635417 311.464286,113.5 C311.464286,113.364583 311.420759,113.253349 311.333705,113.166295 C311.246651,113.079241 311.135417,113.035714 311,113.035714 C309.587791,113.035714 308.383562,113.533849 307.387277,114.530134 C306.390992,115.526419 305.892857,116.730648 305.892857,118.142857 C305.892857,118.278274 305.936383,118.389508 306.023438,118.476562 C306.110492,118.563617 306.221726,118.607143 306.357143,118.607143 C306.49256,118.607143 306.603794,118.563617 306.690848,118.476562 C306.777902,118.389508 306.821429,118.278274 306.821429,118.142857 C306.821429,116.99181 307.230093,116.007631 308.047433,115.19029 C308.864773,114.37295 309.848953,113.964286 311,113.964286 Z" id=""></path>
            </g>
        </g>
    </g>
</svg>